<?xml version="1.0" encoding="UTF-8" standalone="no"?>
<svg
   xmlns:dc="http://purl.org/dc/elements/1.1/"
   xmlns:cc="http://creativecommons.org/ns#"
   xmlns:rdf="http://www.w3.org/1999/02/22-rdf-syntax-ns#"
   xmlns:svg="http://www.w3.org/2000/svg"
   xmlns="http://www.w3.org/2000/svg"
   viewBox="0 0 586.66669 224"
   height="224"
   width="586.66669"
   xml:space="preserve"
   id="svg2"
   version="1.1"><metadata
     id="metadata8"><rdf:RDF><cc:Work
         rdf:about=""><dc:format>image/svg+xml</dc:format><dc:type
           rdf:resource="http://purl.org/dc/dcmitype/StillImage" /></cc:Work></rdf:RDF></metadata><defs
     id="defs6"><clipPath
       id="clipPath20"
       clipPathUnits="userSpaceOnUse"><path
         style="clip-rule:evenodd"
         id="path18"
         d="M 1428.48,100 1740,1600 H 1331.54 L 1020,100 h 408.48" /></clipPath><clipPath
       id="clipPath26"
       clipPathUnits="userSpaceOnUse"><path
         id="path24"
         d="M 0,0 H 4400 V 1680 H 0 Z" /></clipPath><clipPath
       id="clipPath36"
       clipPathUnits="userSpaceOnUse"><path
         style="clip-rule:evenodd"
         id="path34"
         d="M 2584.59,385.582 H 2260.45 V 721.07 h 324.14 c 109.94,0 186.72,-70.105 186.72,-170.5 0,-100.215 -73.3,-164.988 -186.72,-164.988 z M 2260.45,1314.4 h 307.45 c 103.48,0 172.99,-61.87 172.99,-153.92 0,-92 -69.51,-153.79 -172.99,-153.79 h -307.45 z m 592.43,-451.564 -48.68,11.203 48.22,12.996 c 146.75,39.578 234.35,164.625 234.35,334.495 0,188.39 -141.58,378.47 -457.91,378.47 H 1920 V 100 h 736.48 c 281.58,0 463.52,157.266 463.52,400.68 0,182.699 -104.84,324.843 -267.12,362.156 z" /></clipPath><clipPath
       id="clipPath42"
       clipPathUnits="userSpaceOnUse"><path
         id="path40"
         d="M 0,0 H 4400 V 1680 H 0 Z" /></clipPath><clipPath
       id="clipPath52"
       clipPathUnits="userSpaceOnUse"><path
         style="clip-rule:evenodd"
         id="path50"
         d="M 4320,1311.69 V 1600 H 3280 V 100 h 1040 v 288.406 h -695.32 v 329.836 h 543.7 v 288.448 h -543.7 v 305 H 4320" /></clipPath><clipPath
       id="clipPath58"
       clipPathUnits="userSpaceOnUse"><path
         id="path56"
         d="M 0,0 H 4400 V 1680 H 0 Z" /></clipPath><clipPath
       id="clipPath68"
       clipPathUnits="userSpaceOnUse"><path
         style="clip-rule:evenodd"
         id="path66"
         d="m 578.508,603.719 c 0,-156.371 -75.887,-242.496 -213.59,-242.496 -87.277,0 -135.926,22.007 -187.883,62.933 L 80,163.262 C 175.605,98.8672 250.645,60 433.086,60 759.98,60 940,253.105 940,603.719 V 1600 H 221.613 V 1299.64 H 578.508 V 603.719" /></clipPath><clipPath
       id="clipPath74"
       clipPathUnits="userSpaceOnUse"><path
         id="path72"
         d="M 0,0 H 4400 V 1680 H 0 Z" /></clipPath></defs><g
     transform="matrix(1.3333333,0,0,-1.3333333,0,224)"
     id="g10"><g
       transform="scale(0.1)"
       id="g12"><g
         id="g14"><g
           clip-path="url(#clipPath20)"
           id="g16"><g
             clip-path="url(#clipPath26)"
             id="g22"><path
               id="path28"
               style="fill:#1a1c32;fill-opacity:1;fill-rule:nonzero;stroke:none"
               d="m 920,0 h 920 V 1700 H 920 Z" /></g></g></g><g
         id="g30"><g
           clip-path="url(#clipPath36)"
           id="g32"><g
             clip-path="url(#clipPath42)"
             id="g38"><path
               id="path44"
               style="fill:#1a1c32;fill-opacity:1;fill-rule:nonzero;stroke:none"
               d="M 1820,0 H 3220 V 1700 H 1820 Z" /></g></g></g><g
         id="g46"><g
           clip-path="url(#clipPath52)"
           id="g48"><g
             clip-path="url(#clipPath58)"
             id="g54"><path
               id="path60"
               style="fill:#1a1c32;fill-opacity:1;fill-rule:nonzero;stroke:none"
               d="M 3180,0 H 4420 V 1700 H 3180 Z" /></g></g></g><g
         id="g62"><g
           clip-path="url(#clipPath68)"
           id="g64"><g
             clip-path="url(#clipPath74)"
             id="g70"><path
               id="path76"
               style="fill:#1a1c32;fill-opacity:1;fill-rule:nonzero;stroke:none"
               d="M 0,0 H 1040 V 1700 H 0 Z" /></g></g></g></g></g></svg>